{
	"asset":{
		"generator":"Khronos glTF Blender I/O v4.1.63",
		"version":"2.0"
	},
	"scene":0,
	"scenes":[
		{
			"name":"Scene",
			"nodes":[
				0
			]
		}
	],
	"nodes":[
		{
			"mesh":0,
			"name":"Cube"
		}
	],
	"materials":[
		{
			"doubleSided":true,
			"name":"Mat_1",
			"pbrMetallicRoughness":{
				"baseColorFactor":[
					0.8002041578292847,
					0,
					0.0034278063103556633,
					1
				],
				"metallicFactor":0,
				"roughnessFactor":0.5
			}
		},
		{
			"doubleSided":true,
			"name":"Mat_2",
			"pbrMetallicRoughness":{
				"baseColorFactor":[
					0,
					0.8003076910972595,
					0.0001652793725952506,
					1
				],
				"metallicFactor":0,
				"roughnessFactor":0.5
			}
		},
		{
			"doubleSided":true,
			"name":"Mat_3",
			"pbrMetallicRoughness":{
				"baseColorFactor":[
					0.002952338894829154,
					0,
					0.8001965880393982,
					1
				],
				"metallicFactor":0,
				"roughnessFactor":0.5
			}
		}
	],
	"meshes":[
		{
			"name":"Cube.001",
			"primitives":[
				{
					"attributes":{
						"POSITION":0,
						"NORMAL":1,
						"TEXCOORD_0":2
					},
					"indices":3,
					"material":0
				},
				{
					"attributes":{
						"POSITION":4,
						"NORMAL":5,
						"TEXCOORD_0":6
					},
					"indices":7,
					"material":1
				},
				{
					"attributes":{
						"POSITION":8,
						"NORMAL":9,
						"TEXCOORD_0":10
					},
					"indices":11,
					"material":2
				}
			]
		}
	],
	"accessors":[
		{
			"bufferView":0,
			"componentType":5126,
			"count":28,
			"max":[
				0.10000002384185791,
				0.20000004768371582,
				0.10000000149011612
			],
			"min":[
				-0.30000001192092896,
				0,
				-0.2999999523162842
			],
			"type":"VEC3"
		},
		{
			"bufferView":1,
			"componentType":5126,
			"count":28,
			"type":"VEC3"
		},
		{
			"bufferView":2,
			"componentType":5126,
			"count":28,
			"type":"VEC2"
		},
		{
			"bufferView":3,
			"componentType":5123,
			"count":42,
			"type":"SCALAR"
		},
		{
			"bufferView":4,
			"componentType":5126,
			"count":28,
			"max":[
				0.10000002384185791,
				0.20000004768371582,
				0.2999999523162842
			],
			"min":[
				-0.30000001192092896,
				0,
				-0.10000000149011612
			],
			"type":"VEC3"
		},
		{
			"bufferView":5,
			"componentType":5126,
			"count":28,
			"type":"VEC3"
		},
		{
			"bufferView":6,
			"componentType":5126,
			"count":28,
			"type":"VEC2"
		},
		{
			"bufferView":7,
			"componentType":5123,
			"count":42,
			"type":"SCALAR"
		},
		{
			"bufferView":8,
			"componentType":5126,
			"count":40,
			"max":[
				0.10000002384185791,
				0.40000009536743164,
				0.10000002384185791
			],
			"min":[
				-0.30000001192092896,
				0,
				-0.10000002384185791
			],
			"type":"VEC3"
		},
		{
			"bufferView":9,
			"componentType":5126,
			"count":40,
			"type":"VEC3"
		},
		{
			"bufferView":10,
			"componentType":5126,
			"count":40,
			"type":"VEC2"
		},
		{
			"bufferView":11,
			"componentType":5123,
			"count":60,
			"type":"SCALAR"
		}
	],
	"bufferViews":[
		{
			"buffer":0,
			"byteLength":336,
			"byteOffset":0,
			"target":34962
		},
		{
			"buffer":0,
			"byteLength":336,
			"byteOffset":336,
			"target":34962
		},
		{
			"buffer":0,
			"byteLength":224,
			"byteOffset":672,
			"target":34962
		},
		{
			"buffer":0,
			"byteLength":84,
			"byteOffset":896,
			"target":34963
		},
		{
			"buffer":0,
			"byteLength":336,
			"byteOffset":980,
			"target":34962
		},
		{
			"buffer":0,
			"byteLength":336,
			"byteOffset":1316,
			"target":34962
		},
		{
			"buffer":0,
			"byteLength":224,
			"byteOffset":1652,
			"target":34962
		},
		{
			"buffer":0,
			"byteLength":84,
			"byteOffset":1876,
			"target":34963
		},
		{
			"buffer":0,
			"byteLength":480,
			"byteOffset":1960,
			"target":34962
		},
		{
			"buffer":0,
			"byteLength":480,
			"byteOffset":2440,
			"target":34962
		},
		{
			"buffer":0,
			"byteLength":320,
			"byteOffset":2920,
			"target":34962
		},
		{
			"buffer":0,
			"byteLength":120,
			"byteOffset":3240,
			"target":34963
		}
	],
	"buffers":[
		{
			"byteLength":3360,
			"uri":"3_cubes.bin"
		}
	]
}
